<svg width="406" height="157" viewBox="0 0 406 157" fill="none" xmlns="http://www.w3.org/2000/svg">
<path d="M5.85659 43.1428C5.85659 43.1428 55.2066 37.5728 60.7866 34.3828C66.3666 31.1928 71.9266 26.4228 80.2866 24.8328C88.6466 23.2428 144.767 13.6928 144.767 13.6928C144.767 13.6928 151.927 11.7028 162.277 19.2628C172.627 26.8228 195.317 51.1028 201.677 50.3128C208.047 49.5128 211.227 40.7628 209.237 36.7828C207.247 32.8028 168.567 4.0328 161.877 2.1528C152.347 -0.527197 139.987 -0.237198 124.857 2.1528C109.737 4.5428 8.63659 25.4928 8.63659 25.4928C8.63659 25.4928 -4.49341 31.6128 5.84659 43.1528L5.85659 43.1428Z" fill="white" stroke="#1D1D1B" stroke-width="0.5" stroke-miterlimit="10"/>
<g style="mix-blend-mode:multiply">
<path d="M205.267 38.7628C205.267 38.7628 204.957 44.9128 201.287 44.3328C196.317 43.5528 165.467 10.5028 155.117 12.0928C155.117 12.0928 163.647 14.8028 173.577 23.7328C180.087 29.5928 207.997 61.5828 205.267 38.7628Z" fill="#706F6F"/>
</g>
<path d="M271.817 67.6529L362.357 37.8729C362.357 37.8729 384.487 32.2429 387.707 33.8529C390.927 35.4629 405.417 64.4329 405.417 67.6529C405.417 70.8729 402.997 81.6629 399.787 82.5429C397.457 83.1829 394.457 82.6529 392.947 78.3329C391.537 74.3129 386.107 46.6029 380.477 46.8629C374.847 47.1229 329.777 62.8129 329.777 62.8129C329.777 62.8129 316.497 69.2529 310.867 74.0829C305.237 78.9129 278.677 85.3529 278.677 85.3529C278.677 85.3529 269.017 77.7029 271.837 67.6429L271.817 67.6529Z" fill="white" stroke="#1D1D1B" stroke-width="0.5" stroke-miterlimit="10"/>
<g style="mix-blend-mode:multiply">
<path d="M278.367 68.1028C278.367 68.1028 380.637 32.9128 386.217 36.1128C386.217 36.1128 368.017 38.6028 344.457 47.9928C320.897 57.3828 278.367 70.0228 278.367 70.0228V68.1028Z" fill="#706F6F"/>
</g>
<g style="mix-blend-mode:multiply">
<path d="M382.387 46.0628C382.387 46.0628 385.647 46.0628 387.367 49.5128C389.087 52.9628 397.137 74.2228 397.137 74.2228C397.137 74.2228 397.907 79.2028 402.307 71.5428C402.307 71.5428 399.237 81.1028 396.947 78.3328C394.657 75.5628 387.177 52.0028 387.177 52.0028C387.177 52.0028 384.307 45.2628 382.387 46.0628Z" fill="#706F6F"/>
</g>
<path d="M282.336 68.8128C282.096 65.4028 272.766 63.5928 269.626 62.4128C266.486 61.2328 253.926 64.3728 253.926 64.3728C241.756 61.2328 199.376 55.3428 175.046 55.3428C150.716 55.3428 142.476 66.7228 139.726 66.3328C136.976 65.9428 122.456 65.5528 116.176 64.3728C109.896 63.1928 111.076 50.2428 76.9264 37.8928C42.7864 25.5428 8.63645 25.4728 8.63645 25.4728C-4.71355 30.1328 1.87645 43.9628 1.87645 43.9628L3.92646 50.3128C8.24646 52.3428 7.06645 60.8328 8.63645 73.3928C10.2065 85.9528 16.0965 102.043 22.7665 111.853C29.4365 121.663 54.5564 132.653 67.1164 133.043C79.6764 133.433 90.6665 131.083 98.9065 117.733C107.146 104.393 115.786 80.8428 115.786 80.8428L125.986 82.4128C125.986 82.4128 128.896 82.7228 131.336 85.5028C133.776 88.2828 135.766 93.5328 138.936 102.813C146.496 124.913 164.056 142.063 164.056 142.063C164.056 142.063 169.656 149.493 197.496 154.723C220.576 159.063 240.196 152.263 240.196 152.263C257.916 145.093 261.826 107.303 261.826 107.303C261.826 107.303 263.656 94.0028 269.636 90.6528C277.006 86.5128 277.906 86.2128 282.346 85.3328C285.956 84.6228 282.586 72.2028 282.346 68.7928L282.336 68.8128ZM87.5265 119.323C78.1065 124.423 55.3465 126.383 41.2165 115.403C27.0865 104.413 20.4165 85.1828 18.4565 62.4228C16.4965 39.6628 25.5565 37.1928 25.5565 37.1928C25.5565 37.1928 40.4365 36.5228 59.6665 41.2228C78.8965 45.9328 100.086 59.2728 100.486 67.9128C100.876 76.5428 96.9564 114.223 87.5364 119.323H87.5265ZM241.756 143.653C232.726 147.973 220.286 148.363 209.826 147.573C199.366 146.793 172.286 146.003 162.476 116.173C162.476 116.173 159.726 102.043 157.376 98.9028C155.026 95.7628 147.956 84.4228 147.956 80.4728C147.956 72.2428 155.106 67.5028 155.106 67.5028C155.106 67.5028 163.266 62.4028 173.856 62.4028C184.456 62.4028 238.606 65.1528 246.066 75.3528C253.526 85.5528 253.126 97.3328 254.306 106.753C255.486 116.173 250.776 139.323 241.746 143.643L241.756 143.653Z" fill="white" stroke="#1D1D1B" stroke-width="0.5" stroke-miterlimit="10"/>
</svg>
